<svg fill="none" xmlns="http://www.w3.org/2000/svg" viewBox="0 0 53 20">
  <path d="M6.835 4.273H2.861L0 0h3.975l2.86 4.273zm6.833 0H9.693L6.833 0h3.974l2.86 4.273z" fill="#91C36C"/>
  <path d="M18.245 9.35h4.076c2.886 0 3.46-1.608 3.46-2.546 0-.939-.574-2.506-3.46-2.506h-5.823L13.671 0h9.95c5.737 0 7.467 4.265 7.467 6.812 0 1.935-1.19 4.8-4.616 6.125L31.384 20h-6.135L18.253 9.359l-.008-.008zm28.156 7.09h-7.232l-1.232 3.501H33.06L40.604 1.97 39.912 0h4.472l8.202 19.941h-4.961l-1.232-3.502h.008zm-6.025-3.445h4.793l-2.38-6.778-2.413 6.778z" fill="#044862"/>
</svg>
