<svg fill="none" xmlns="http://www.w3.org/2000/svg" viewBox="0 0 29 36">
  <path d="M22.982 19.671a2.76 2.76 0 014.198 2.357v4.226c0 .212-.024.424-.073.632l-4.125-7.215zm0 0a2.76 2.76 0 00-4.026-.956 2.758 2.758 0 00-3.395-.974v-4.516a2.76 2.76 0 10-5.521 0v9.189a2.762 2.762 0 00-3.441-.154h0a2.76 2.76 0 00-.609 3.857l.808-.588-.808.588 5.634 7.746h0A2.761 2.761 0 0013.856 35h9.155a2.76 2.76 0 002.688-2.128s0 0 0 0l1.408-5.986-4.125-7.215zM14.39 3.303h0c0-1.061-.86-1.92-1.921-1.921h-.001c-1.061 0-1.921.86-1.922 1.921h0V6.2h0a1.92 1.92 0 001.921 1.922h.001c1.061 0 1.921-.86 1.922-1.922h0V3.303zM6.465 9.907h0a1.922 1.922 0 002.717-2.718L7.134 5.142a1.922 1.922 0 10-2.717 2.717l2.048 2.048z" fill="#F0F" stroke="#fff" stroke-width="2"/>
  <path d="M6.2 9.947h0c1.06 0 1.92.86 1.92 1.921L6.2 9.947zm0 0H3.303m2.895 0H3.304m0 0s0 0 0 0m0 0h0m0 0s0 0 0 0m0 0h0m0 0c-1.062 0-1.922.86-1.922 1.921l1.921-1.921zm-1.922 1.921a1.918 1.918 0 001.921 1.922H6.2c1.061 0 1.922-.86 1.922-1.921H1.38zM15.9 9.414c.75.75 1.967.75 2.718 0l2.047-2.048a1.922 1.922 0 00-2.717-2.717L15.9 6.696c-.75.75-.75 1.967 0 2.718zm3.738 4.376a1.918 1.918 0 01-1.921-1.921l1.921 1.92zm0 0s0 0 0 0h2.896m-2.896 0h2.896m0 0s0 0 0 0m0 0h0m0 0a1.92 1.92 0 001.921-1.922l-1.921 1.922zm-2.896-3.843s0 0 0 0h2.896s0 0 0 0a1.92 1.92 0 011.921 1.921l-4.817-1.921zm0 0c-1.06 0-1.921.86-1.921 1.921l1.921-1.921z" fill="#F0F" stroke="#fff" stroke-width="2"/>
</svg>
